<?xml version="1.0" encoding="UTF-8" standalone="no"?>
<!DOCTYPE svg PUBLIC "-//W3C//DTD SVG 1.1//EN" "http://www.w3.org/Graphics/SVG/1.1/DTD/svg11.dtd">
<svg width="100%" height="100%" viewBox="0 0 169 141" version="1.1" xmlns="http://www.w3.org/2000/svg" xmlns:xlink="http://www.w3.org/1999/xlink" xml:space="preserve" xmlns:serif="http://www.serif.com/" style="fill-rule:evenodd;clip-rule:evenodd;stroke-linejoin:round;stroke-miterlimit:2;">
    <g transform="matrix(1.6284,0,0,1.6284,-48.519,-43.4082)">
        <g id="Page-1">
            <g>
                <rect x="89.73" y="95.632" width="22.309" height="3.215"/>
                <g transform="matrix(1,0,0,1,0,6.63702)">
                    <rect x="89.73" y="95.632" width="22.309" height="3.215"/>
                </g>
                <g transform="matrix(1,0,0,1,0,13.4167)">
                    <rect x="89.73" y="95.632" width="22.309" height="3.215"/>
                </g>
                <path d="M119.932,35.007L111.186,44.26L95.614,44.26L87.484,35.007C87.484,35.007 102.244,19.27 119.932,35.007Z"/>
                <path d="M108.973,46.22L94.988,46.22L85.596,55.686L85.596,69.266C85.596,69.266 106.244,70.305 108.973,46.22Z"/>
                <path d="M85.701,35.728L94.3,44.714L85.582,53.068L85.701,35.728Z"/>
                <path d="M83.389,37.037L83.389,69.883L67.073,52.942L83.389,37.037Z"/>
                <path d="M65.842,54.634L81.836,70.798L49.777,70.798L65.842,54.634Z"/>
                <path d="M63.893,53.347L41.411,76.391L31.438,66.32C31.438,66.32 45.428,51.515 63.893,53.347Z"/>
                <path d="M71.229,72.716L71.229,85.973L104.294,85.973C104.294,85.973 87.815,70.669 71.229,72.716Z"/>
                <path d="M130.957,31.963L130.957,44.905L122.068,35.954C122.068,35.954 124.686,31.717 130.957,31.963Z"/>
                <path d="M120.4,37.154L130.17,47.073L116.136,47.073C116.136,47.073 115.438,40.937 120.4,37.154Z"/>
                <g transform="matrix(1.65686,0,0,1.88224,-27.3559,-74.2973)">
                    <path d="M38.521,96.305L40.209,96.141C40.31,96.707 40.516,97.123 40.827,97.389C41.137,97.654 41.556,97.787 42.084,97.787C42.642,97.787 43.063,97.669 43.346,97.433C43.629,97.196 43.771,96.92 43.771,96.604C43.771,96.4 43.711,96.228 43.592,96.085C43.473,95.942 43.265,95.818 42.968,95.713C42.765,95.643 42.302,95.518 41.58,95.338C40.65,95.107 39.998,94.824 39.623,94.488C39.095,94.016 38.832,93.439 38.832,92.76C38.832,92.322 38.956,91.913 39.204,91.532C39.452,91.151 39.809,90.861 40.276,90.662C40.743,90.463 41.306,90.363 41.966,90.363C43.044,90.363 43.856,90.6 44.401,91.072C44.946,91.545 45.232,92.176 45.259,92.965L43.525,93.041C43.451,92.6 43.292,92.282 43.047,92.089C42.803,91.896 42.437,91.799 41.949,91.799C41.445,91.799 41.05,91.902 40.765,92.109C40.582,92.242 40.49,92.42 40.49,92.643C40.49,92.846 40.576,93.02 40.748,93.164C40.966,93.348 41.498,93.539 42.341,93.738C43.185,93.938 43.809,94.144 44.213,94.356C44.618,94.569 44.934,94.86 45.163,95.23C45.391,95.599 45.505,96.055 45.505,96.598C45.505,97.09 45.369,97.551 45.095,97.98C44.822,98.41 44.435,98.73 43.935,98.938C43.435,99.147 42.812,99.252 42.066,99.252C40.98,99.252 40.146,99.001 39.564,98.499C38.982,97.997 38.634,97.266 38.521,96.305Z" style="fill-rule:nonzero;"/>
                    <path d="M49.22,99.1L49.22,95.484L46.074,90.51L48.107,90.51L50.128,93.908L52.109,90.51L54.107,90.51L50.949,95.496L50.949,99.1L49.22,99.1Z" style="fill-rule:nonzero;"/>
                    <path d="M54.529,96.305L56.216,96.141C56.318,96.707 56.524,97.123 56.835,97.389C57.145,97.654 57.564,97.787 58.091,97.787C58.65,97.787 59.071,97.669 59.354,97.433C59.637,97.196 59.779,96.92 59.779,96.604C59.779,96.4 59.719,96.228 59.6,96.085C59.481,95.942 59.273,95.818 58.976,95.713C58.773,95.643 58.31,95.518 57.587,95.338C56.658,95.107 56.005,94.824 55.63,94.488C55.103,94.016 54.839,93.439 54.839,92.76C54.839,92.322 54.963,91.913 55.211,91.532C55.46,91.151 55.817,90.861 56.284,90.662C56.751,90.463 57.314,90.363 57.974,90.363C59.052,90.363 59.864,90.6 60.409,91.072C60.954,91.545 61.24,92.176 61.267,92.965L59.533,93.041C59.459,92.6 59.299,92.282 59.055,92.089C58.811,91.896 58.445,91.799 57.957,91.799C57.453,91.799 57.058,91.902 56.773,92.109C56.589,92.242 56.498,92.42 56.498,92.643C56.498,92.846 56.584,93.02 56.755,93.164C56.974,93.348 57.505,93.539 58.349,93.738C59.193,93.938 59.817,94.144 60.221,94.356C60.626,94.569 60.942,94.86 61.17,95.23C61.399,95.599 61.513,96.055 61.513,96.598C61.513,97.09 61.377,97.551 61.103,97.98C60.83,98.41 60.443,98.73 59.943,98.938C59.443,99.147 58.82,99.252 58.074,99.252C56.988,99.252 56.154,99.001 55.572,98.499C54.99,97.997 54.642,97.266 54.529,96.305Z" style="fill-rule:nonzero;"/>
                    <path d="M64.906,99.1L64.906,91.963L62.357,91.963L62.357,90.51L69.183,90.51L69.183,91.963L66.64,91.963L66.64,99.1L64.906,99.1Z" style="fill-rule:nonzero;"/>
                    <path d="M86.357,99.1L86.357,90.58L88.091,90.58L88.091,97.652L92.404,97.652L92.404,99.1L86.357,99.1Z" style="fill-rule:nonzero;"/>
                </g>
            </g>
        </g>
    </g>
</svg>
