<?xml version="1.0" encoding="UTF-8" standalone="no"?><!DOCTYPE svg PUBLIC "-//W3C//DTD SVG 1.1//EN" "http://www.w3.org/Graphics/SVG/1.1/DTD/svg11.dtd"><svg width="100%" height="100%" viewBox="0 0 169 141" version="1.1" xmlns="http://www.w3.org/2000/svg" xmlns:xlink="http://www.w3.org/1999/xlink" xml:space="preserve" xmlns:serif="http://www.serif.com/" style="fill-rule:evenodd;clip-rule:evenodd;stroke-linejoin:round;stroke-miterlimit:2;"><g id="Page-1"><g><rect x="91.073" y="90.57" width="15.95" height="2.298"/><rect x="91.073" y="95.315" width="15.95" height="2.298"/><rect x="91.073" y="100.162" width="15.95" height="2.298"/><path d="M112.667,47.225l-6.253,6.616l-11.134,-0l-5.813,-6.616c0,0 10.553,-11.252 23.2,0Z"/><path d="M104.831,55.242l-9.999,0l-6.715,6.768l0,9.709c0,0 14.763,0.743 16.714,-16.477Z"/><path d="M88.192,47.74l6.148,6.425l-6.232,5.973l0.084,-12.398Z"/><path d="M86.54,48.676l-0,23.484l-11.666,-12.112l11.666,-11.372Z"/><path d="M73.994,61.258l11.435,11.556l-22.921,0l11.486,-11.556Z"/><path d="M72.601,60.338l-16.075,16.475l-7.13,-7.2c0,-0 10.002,-10.585 23.205,-9.275Z"/><path d="M77.845,74.186l0,9.478l23.641,0c-0,0 -11.782,-10.942 -23.641,-9.478Z"/><path d="M120.549,45.049l-0,9.253l-6.355,-6.4c-0,0 1.872,-3.029 6.355,-2.853Z"/><path d="M113.001,48.76l6.985,7.092l-10.033,-0c-0,-0 -0.499,-4.387 3.048,-7.092Z"/><g><path d="M52.993,98.677l1.999,-0.22c0.12,0.762 0.364,1.322 0.732,1.679c0.368,0.358 0.864,0.536 1.489,0.536c0.661,0 1.16,-0.159 1.495,-0.477c0.336,-0.318 0.504,-0.69 0.504,-1.115c-0,-0.274 -0.071,-0.506 -0.212,-0.698c-0.141,-0.192 -0.388,-0.359 -0.739,-0.501c-0.241,-0.095 -0.789,-0.263 -1.645,-0.505c-1.102,-0.31 -1.874,-0.691 -2.319,-1.143c-0.624,-0.636 -0.937,-1.411 -0.937,-2.326c0,-0.589 0.147,-1.14 0.441,-1.652c0.294,-0.513 0.717,-0.903 1.27,-1.171c0.553,-0.268 1.221,-0.402 2.003,-0.402c1.277,-0 2.238,0.318 2.884,0.954c0.645,0.636 0.984,1.485 1.017,2.547l-2.055,0.102c-0.088,-0.594 -0.276,-1.021 -0.566,-1.281c-0.289,-0.26 -0.723,-0.39 -1.301,-0.39c-0.597,-0 -1.064,0.139 -1.402,0.418c-0.218,0.178 -0.326,0.418 -0.326,0.717c-0,0.274 0.102,0.507 0.305,0.702c0.259,0.247 0.889,0.505 1.888,0.773c1,0.268 1.739,0.545 2.218,0.832c0.479,0.286 0.854,0.678 1.124,1.174c0.271,0.497 0.406,1.111 0.406,1.842c0,0.662 -0.162,1.282 -0.486,1.861c-0.324,0.578 -0.782,1.008 -1.374,1.289c-0.592,0.281 -1.33,0.422 -2.214,0.422c-1.287,-0 -2.274,-0.338 -2.964,-1.014c-0.689,-0.675 -1.101,-1.659 -1.235,-2.953Z" style="fill-rule:nonzero;"/><path d="M65.667,102.439l-0,-4.865l-3.727,-6.695l2.408,-0l2.395,4.573l2.346,-4.573l2.367,-0l-3.742,6.71l0,4.85l-2.047,-0Z" style="fill-rule:nonzero;"/><path d="M71.955,98.677l1.999,-0.22c0.121,0.762 0.365,1.322 0.733,1.679c0.368,0.358 0.864,0.536 1.489,0.536c0.661,0 1.16,-0.159 1.495,-0.477c0.336,-0.318 0.504,-0.69 0.504,-1.115c-0,-0.274 -0.071,-0.506 -0.212,-0.698c-0.141,-0.192 -0.388,-0.359 -0.739,-0.501c-0.241,-0.095 -0.789,-0.263 -1.645,-0.505c-1.102,-0.31 -1.874,-0.691 -2.319,-1.143c-0.624,-0.636 -0.937,-1.411 -0.937,-2.326c0,-0.589 0.147,-1.14 0.441,-1.652c0.294,-0.513 0.717,-0.903 1.27,-1.171c0.553,-0.268 1.221,-0.402 2.003,-0.402c1.277,-0 2.238,0.318 2.884,0.954c0.645,0.636 0.984,1.485 1.017,2.547l-2.055,0.102c-0.088,-0.594 -0.276,-1.021 -0.566,-1.281c-0.289,-0.26 -0.723,-0.39 -1.301,-0.39c-0.597,-0 -1.064,0.139 -1.402,0.418c-0.218,0.178 -0.326,0.418 -0.326,0.717c-0,0.274 0.101,0.507 0.305,0.702c0.259,0.247 0.888,0.505 1.888,0.773c0.999,0.268 1.739,0.545 2.218,0.832c0.479,0.286 0.853,0.678 1.124,1.174c0.271,0.497 0.406,1.111 0.406,1.842c0,0.662 -0.162,1.282 -0.486,1.861c-0.324,0.578 -0.782,1.008 -1.374,1.289c-0.592,0.281 -1.33,0.422 -2.214,0.422c-1.287,-0 -2.275,-0.338 -2.964,-1.014c-0.69,-0.675 -1.101,-1.659 -1.236,-2.953Z" style="fill-rule:nonzero;"/><path d="M84.248,102.439l-0,-9.605l-3.019,0l-0,-1.955l8.086,-0l-0,1.955l-3.012,0l-0,9.605l-2.055,-0Z" style="fill-rule:nonzero;"/><path d="M109.659,102.439l0,-11.465l2.055,-0l-0,9.517l5.108,0l0,1.948l-7.163,-0Z" style="fill-rule:nonzero;"/></g></g></g></svg>