<?xml version="1.0" encoding="UTF-8" standalone="no"?><!DOCTYPE svg PUBLIC "-//W3C//DTD SVG 1.1//EN" "http://www.w3.org/Graphics/SVG/1.1/DTD/svg11.dtd"><svg width="100%" height="100%" viewBox="0 0 169 141" version="1.1" xmlns="http://www.w3.org/2000/svg" xmlns:xlink="http://www.w3.org/1999/xlink" xml:space="preserve" xmlns:serif="http://www.serif.com/" style="fill-rule:evenodd;clip-rule:evenodd;stroke-linejoin:round;stroke-miterlimit:2;"><g id="Page-1"><g><rect x="98.053" y="110.791" width="35.436" height="5.106"/><rect x="98.053" y="121.333" width="35.436" height="5.106"/><rect x="98.053" y="132.102" width="35.436" height="5.106"/><path d="M146.025,14.495l-13.891,14.697l-24.735,0l-12.914,-14.697c0,0 23.444,-24.996 51.54,0Z"/><path d="M128.617,32.307l-22.213,-0l-14.918,15.034l-0,21.571c-0,-0 32.797,1.65 37.131,-36.605Z"/><path d="M91.653,15.64l13.658,14.274l-13.847,13.27l0.189,-27.544Z"/><path d="M87.981,17.719l-0,52.173l-25.916,-26.909l25.916,-25.264Z"/><path d="M60.109,45.671l25.404,25.674l-50.922,-0l25.518,-25.674Z"/><path d="M57.014,43.627l-35.711,36.602l-15.84,-15.997c0,0 22.221,-23.515 51.551,-20.605Z"/><path d="M68.666,74.391l0,21.058l52.519,-0c0,-0 -26.174,-24.308 -52.519,-21.058Z"/><path d="M163.537,9.66l-0,20.557l-14.118,-14.217c-0,-0 4.158,-6.73 14.118,-6.34Z"/><path d="M146.769,17.905l15.518,15.755l-22.291,0c-0,0 -1.109,-9.746 6.773,-15.755Z"/><g><path d="M13.452,128.803l4.441,-0.491c0.268,1.694 0.81,2.938 1.627,3.732c0.818,0.794 1.92,1.191 3.308,1.191c1.47,-0 2.578,-0.353 3.323,-1.06c0.745,-0.707 1.118,-1.533 1.118,-2.479c-0,-0.607 -0.157,-1.124 -0.47,-1.55c-0.314,-0.426 -0.861,-0.797 -1.643,-1.112c-0.534,-0.211 -1.752,-0.584 -3.654,-1.122c-2.447,-0.689 -4.164,-1.535 -5.151,-2.54c-1.387,-1.413 -2.081,-3.135 -2.081,-5.168c-0,-1.308 0.326,-2.531 0.979,-3.67c0.653,-1.138 1.593,-2.005 2.822,-2.601c1.228,-0.596 2.711,-0.893 4.448,-0.893c2.838,-0 4.974,0.706 6.408,2.119c1.434,1.413 2.187,3.3 2.259,5.659l-4.565,0.227c-0.195,-1.319 -0.614,-2.268 -1.256,-2.846c-0.643,-0.578 -1.607,-0.867 -2.892,-0.867c-1.326,-0 -2.364,0.309 -3.115,0.928c-0.483,0.397 -0.724,0.928 -0.724,1.594c-0,0.607 0.226,1.127 0.678,1.559c0.576,0.549 1.974,1.121 4.194,1.717c2.221,0.596 3.863,1.212 4.927,1.848c1.064,0.637 1.897,1.507 2.498,2.61c0.602,1.104 0.902,2.467 0.902,4.091c0,1.471 -0.359,2.849 -1.079,4.134c-0.72,1.285 -1.737,2.239 -3.053,2.864c-1.316,0.625 -2.956,0.937 -4.919,0.937c-2.858,0 -5.053,-0.75 -6.585,-2.251c-1.532,-1.5 -2.447,-3.687 -2.745,-6.56Z" style="fill-rule:nonzero;"/><path d="M41.61,137.159l-0,-10.809l-8.281,-14.872l5.351,-0l5.32,10.16l5.212,-10.16l5.258,-0l-8.311,14.907l-0,10.774l-4.549,-0Z" style="fill-rule:nonzero;"/><path d="M55.581,128.803l4.441,-0.491c0.267,1.694 0.809,2.938 1.627,3.732c0.817,0.794 1.919,1.191 3.307,1.191c1.47,-0 2.578,-0.353 3.323,-1.06c0.746,-0.707 1.118,-1.533 1.118,-2.479c0,-0.607 -0.157,-1.124 -0.47,-1.55c-0.314,-0.426 -0.861,-0.797 -1.642,-1.112c-0.535,-0.211 -1.753,-0.584 -3.655,-1.122c-2.447,-0.689 -4.163,-1.535 -5.15,-2.54c-1.388,-1.413 -2.082,-3.135 -2.082,-5.168c-0,-1.308 0.326,-2.531 0.979,-3.67c0.653,-1.138 1.594,-2.005 2.822,-2.601c1.228,-0.596 2.711,-0.893 4.449,-0.893c2.837,-0 4.973,0.706 6.407,2.119c1.434,1.413 2.187,3.3 2.259,5.659l-4.564,0.227c-0.196,-1.319 -0.615,-2.268 -1.257,-2.846c-0.643,-0.578 -1.606,-0.867 -2.892,-0.867c-1.326,-0 -2.364,0.309 -3.114,0.928c-0.484,0.397 -0.725,0.928 -0.725,1.594c-0,0.607 0.226,1.127 0.678,1.559c0.576,0.549 1.974,1.121 4.195,1.717c2.22,0.596 3.862,1.212 4.926,1.848c1.064,0.637 1.897,1.507 2.499,2.61c0.601,1.104 0.902,2.467 0.902,4.091c-0,1.471 -0.36,2.849 -1.08,4.134c-0.719,1.285 -1.737,2.239 -3.053,2.864c-1.316,0.625 -2.956,0.937 -4.919,0.937c-2.858,0 -5.053,-0.75 -6.585,-2.251c-1.531,-1.5 -2.446,-3.687 -2.744,-6.56Z" style="fill-rule:nonzero;"/><path d="M82.89,137.159l-0,-21.337l-6.708,0l0,-4.344l17.965,-0l-0,4.344l-6.693,0l0,21.337l-4.564,-0Z" style="fill-rule:nonzero;"/><path d="M139.344,137.159l-0,-25.471l4.564,-0l0,21.144l11.349,-0l0,4.327l-15.913,-0Z" style="fill-rule:nonzero;"/></g></g></g></svg>